<svg width="300" height="58" viewBox="0 0 300 58" fill="none" xmlns="http://www.w3.org/2000/svg">
<path d="M11.52 16.38C12.68 14.9 14.18 13.8 16.02 13.08C17.9 12.32 20.04 11.94 22.44 11.94V22.2C21.4 22.08 20.54 22.02 19.86 22.02C17.42 22.02 15.5 22.68 14.1 24C12.74 25.32 12.06 27.34 12.06 30.06V45H0.66V12.48H11.52V16.38ZM57.6914 28.8C57.6914 28.88 57.6314 29.82 57.5114 31.62H33.8714C34.3514 33.3 35.2714 34.6 36.6314 35.52C38.0314 36.4 39.7714 36.84 41.8514 36.84C43.4114 36.84 44.7514 36.62 45.8714 36.18C47.0314 35.74 48.1914 35.02 49.3514 34.02L55.3514 40.26C52.1914 43.78 47.5714 45.54 41.4914 45.54C37.6914 45.54 34.3514 44.82 31.4714 43.38C28.5914 41.94 26.3514 39.94 24.7514 37.38C23.1914 34.82 22.4114 31.92 22.4114 28.68C22.4114 25.48 23.1714 22.62 24.6914 20.1C26.2514 17.54 28.3914 15.54 31.1114 14.1C33.8314 12.66 36.8914 11.94 40.2914 11.94C43.5314 11.94 46.4714 12.62 49.1114 13.98C51.7514 15.3 53.8314 17.24 55.3514 19.8C56.9114 22.32 57.6914 25.32 57.6914 28.8ZM40.3514 20.04C38.5914 20.04 37.1114 20.54 35.9114 21.54C34.7514 22.54 34.0114 23.9 33.6914 25.62H47.0114C46.6914 23.9 45.9314 22.54 44.7314 21.54C43.5714 20.54 42.1114 20.04 40.3514 20.04ZM72.3675 45.54C69.6475 45.54 66.9675 45.24 64.3275 44.64C61.6875 44 59.5675 43.18 57.9675 42.18L61.3875 34.38C62.8675 35.3 64.6275 36.04 66.6675 36.6C68.7075 37.12 70.7275 37.38 72.7275 37.38C74.5675 37.38 75.8675 37.2 76.6275 36.84C77.4275 36.44 77.8275 35.88 77.8275 35.16C77.8275 34.44 77.3475 33.94 76.3875 33.66C75.4675 33.34 73.9875 33.04 71.9475 32.76C69.3475 32.44 67.1275 32.02 65.2875 31.5C63.4875 30.98 61.9275 30.02 60.6075 28.62C59.2875 27.22 58.6275 25.26 58.6275 22.74C58.6275 20.66 59.2475 18.82 60.4875 17.22C61.7275 15.58 63.5275 14.3 65.8875 13.38C68.2875 12.42 71.1475 11.94 74.4675 11.94C76.8275 11.94 79.1675 12.18 81.4875 12.66C83.8075 13.14 85.7475 13.82 87.3075 14.7L83.8875 22.44C81.0075 20.84 77.8875 20.04 74.5275 20.04C72.7275 20.04 71.4075 20.26 70.5675 20.7C69.7275 21.1 69.3075 21.64 69.3075 22.32C69.3075 23.08 69.7675 23.62 70.6875 23.94C71.6075 24.22 73.1275 24.52 75.2475 24.84C77.9275 25.24 80.1475 25.7 81.9075 26.22C83.6675 26.74 85.1875 27.7 86.4675 29.1C87.7875 30.46 88.4475 32.38 88.4475 34.86C88.4475 36.9 87.8275 38.74 86.5875 40.38C85.3475 41.98 83.5075 43.24 81.0675 44.16C78.6675 45.08 75.7675 45.54 72.3675 45.54ZM113.4 43.68C112.44 44.28 111.26 44.74 109.86 45.06C108.5 45.38 107.04 45.54 105.48 45.54C101.24 45.54 97.98 44.5 95.7 42.42C93.42 40.34 92.28 37.24 92.28 33.12V22.2H87.54V13.68H92.28V5.22H103.68V13.68H111.12V22.2H103.68V33C103.68 34.16 103.98 35.08 104.58 35.76C105.22 36.4 106.06 36.72 107.1 36.72C108.42 36.72 109.58 36.38 110.58 35.7L113.4 43.68ZM130.778 45.54C127.298 45.54 124.158 44.82 121.358 43.38C118.558 41.94 116.358 39.94 114.758 37.38C113.198 34.82 112.418 31.92 112.418 28.68C112.418 25.48 113.198 22.6 114.758 20.04C116.358 17.48 118.538 15.5 121.298 14.1C124.098 12.66 127.258 11.94 130.778 11.94C134.298 11.94 137.458 12.66 140.258 14.1C143.058 15.5 145.238 17.48 146.798 20.04C148.358 22.56 149.138 25.44 149.138 28.68C149.138 31.92 148.358 34.82 146.798 37.38C145.238 39.94 143.058 41.94 140.258 43.38C137.458 44.82 134.298 45.54 130.778 45.54ZM130.778 36.48C132.778 36.48 134.418 35.8 135.698 34.44C136.978 33.04 137.618 31.12 137.618 28.68C137.618 26.28 136.978 24.4 135.698 23.04C134.418 21.68 132.778 21 130.778 21C128.778 21 127.138 21.68 125.858 23.04C124.578 24.4 123.938 26.28 123.938 28.68C123.938 31.12 124.578 33.04 125.858 34.44C127.138 35.8 128.778 36.48 130.778 36.48ZM152.019 0.479997H163.419V45H152.019V0.479997ZM184.748 45.54C181.268 45.54 178.128 44.82 175.328 43.38C172.528 41.94 170.328 39.94 168.728 37.38C167.168 34.82 166.388 31.92 166.388 28.68C166.388 25.48 167.168 22.6 168.728 20.04C170.328 17.48 172.508 15.5 175.268 14.1C178.068 12.66 181.228 11.94 184.748 11.94C188.268 11.94 191.428 12.66 194.228 14.1C197.028 15.5 199.208 17.48 200.768 20.04C202.328 22.56 203.108 25.44 203.108 28.68C203.108 31.92 202.328 34.82 200.768 37.38C199.208 39.94 197.028 41.94 194.228 43.38C191.428 44.82 188.268 45.54 184.748 45.54ZM184.748 36.48C186.748 36.48 188.388 35.8 189.668 34.44C190.948 33.04 191.588 31.12 191.588 28.68C191.588 26.28 190.948 24.4 189.668 23.04C188.388 21.68 186.748 21 184.748 21C182.748 21 181.108 21.68 179.828 23.04C178.548 24.4 177.908 26.28 177.908 28.68C177.908 31.12 178.548 33.04 179.828 34.44C181.108 35.8 182.748 36.48 184.748 36.48ZM240.969 12.48V39.06C240.969 45.1 239.329 49.62 236.049 52.62C232.769 55.66 228.049 57.18 221.889 57.18C218.689 57.18 215.689 56.82 212.889 56.1C210.089 55.38 207.709 54.32 205.749 52.92L209.889 44.94C211.209 46.02 212.869 46.86 214.869 47.46C216.909 48.1 218.909 48.42 220.869 48.42C223.869 48.42 226.069 47.76 227.469 46.44C228.869 45.12 229.569 43.16 229.569 40.56V39.48C227.369 42.04 224.149 43.32 219.909 43.32C217.029 43.32 214.369 42.68 211.929 41.4C209.489 40.08 207.549 38.24 206.109 35.88C204.669 33.48 203.949 30.72 203.949 27.6C203.949 24.52 204.669 21.8 206.109 19.44C207.549 17.04 209.489 15.2 211.929 13.92C214.369 12.6 217.029 11.94 219.909 11.94C224.549 11.94 227.949 13.44 230.109 16.44V12.48H240.969ZM222.609 34.26C224.649 34.26 226.329 33.64 227.649 32.4C229.009 31.16 229.689 29.56 229.689 27.6C229.689 25.64 229.029 24.06 227.709 22.86C226.389 21.62 224.689 21 222.609 21C220.529 21 218.809 21.62 217.449 22.86C216.129 24.06 215.469 25.64 215.469 27.6C215.469 29.56 216.149 31.16 217.509 32.4C218.869 33.64 220.569 34.26 222.609 34.26ZM280.154 12.48L266.114 46.32C264.474 50.32 262.474 53.12 260.114 54.72C257.754 56.36 254.874 57.18 251.474 57.18C249.754 57.18 248.014 56.9 246.254 56.34C244.534 55.82 243.134 55.12 242.054 54.24L246.014 46.26C246.654 46.86 247.414 47.32 248.294 47.64C249.214 48 250.134 48.18 251.054 48.18C252.134 48.18 253.014 47.96 253.694 47.52C254.414 47.08 255.014 46.38 255.494 45.42L241.574 12.48H253.274L261.254 32.34L269.294 12.48H280.154Z" fill="#F9F9F9"/>
<path d="M289.731 45.81C286.851 45.81 284.421 44.85 282.441 42.93C280.461 41.01 279.471 38.58 279.471 35.64C279.471 32.64 280.431 30.21 282.351 28.35C284.331 26.49 286.791 25.56 289.731 25.56C292.731 25.56 295.191 26.49 297.111 28.35C299.031 30.21 299.991 32.64 299.991 35.64C299.991 38.58 299.001 41.01 297.021 42.93C295.101 44.85 292.671 45.81 289.731 45.81Z" fill="#FF7A45"/>
</svg>
