<svg width="300" height="58" viewBox="0 0 300 58" fill="none" xmlns="http://www.w3.org/2000/svg">
<path d="M0.66 45V12.48H11.52V21.96L9.9 19.26C10.86 16.82 12.42 15 14.58 13.8C16.74 12.56 19.36 11.94 22.44 11.94V22.2C21.92 22.12 21.46 22.08 21.06 22.08C20.7 22.04 20.3 22.02 19.86 22.02C17.54 22.02 15.66 22.66 14.22 23.94C12.78 25.18 12.06 27.22 12.06 30.06V45H0.66ZM41.4914 45.54C37.6514 45.54 34.2914 44.82 31.4114 43.38C28.5714 41.9 26.3514 39.9 24.7514 37.38C23.1914 34.82 22.4114 31.92 22.4114 28.68C22.4114 25.44 23.1714 22.56 24.6914 20.04C26.2514 17.48 28.3914 15.5 31.1114 14.1C33.8314 12.66 36.8914 11.94 40.2914 11.94C43.4914 11.94 46.4114 12.6 49.0514 13.92C51.6914 15.2 53.7914 17.1 55.3514 19.62C56.9114 22.14 57.6914 25.2 57.6914 28.8C57.6914 29.2 57.6714 29.66 57.6314 30.18C57.5914 30.7 57.5514 31.18 57.5114 31.62H31.7714V25.62H51.4514L47.1314 27.3C47.1714 25.82 46.8914 24.54 46.2914 23.46C45.7314 22.38 44.9314 21.54 43.8914 20.94C42.8914 20.34 41.7114 20.04 40.3514 20.04C38.9914 20.04 37.7914 20.34 36.7514 20.94C35.7514 21.54 34.9714 22.4 34.4114 23.52C33.8514 24.6 33.5714 25.88 33.5714 27.36V29.1C33.5714 30.7 33.8914 32.08 34.5314 33.24C35.2114 34.4 36.1714 35.3 37.4114 35.94C38.6514 36.54 40.1314 36.84 41.8514 36.84C43.4514 36.84 44.8114 36.62 45.9314 36.18C47.0914 35.7 48.2314 34.98 49.3514 34.02L55.3514 40.26C53.7914 41.98 51.8714 43.3 49.5914 44.22C47.3114 45.1 44.6114 45.54 41.4914 45.54ZM72.3675 45.54C69.6075 45.54 66.9075 45.22 64.2675 44.58C61.6675 43.94 59.5675 43.14 57.9675 42.18L61.3875 34.38C62.9075 35.3 64.6875 36.04 66.7275 36.6C68.7675 37.12 70.7675 37.38 72.7275 37.38C74.6475 37.38 75.9675 37.18 76.6875 36.78C77.4475 36.38 77.8275 35.84 77.8275 35.16C77.8275 34.52 77.4675 34.06 76.7475 33.78C76.0675 33.46 75.1475 33.22 73.9875 33.06C72.8675 32.9 71.6275 32.72 70.2675 32.52C68.9075 32.32 67.5275 32.06 66.1275 31.74C64.7675 31.38 63.5075 30.86 62.3475 30.18C61.2275 29.46 60.3275 28.5 59.6475 27.3C58.9675 26.1 58.6275 24.58 58.6275 22.74C58.6275 20.66 59.2275 18.82 60.4275 17.22C61.6675 15.58 63.4675 14.3 65.8275 13.38C68.1875 12.42 71.0675 11.94 74.4675 11.94C76.7475 11.94 79.0475 12.18 81.3675 12.66C83.7275 13.1 85.7075 13.78 87.3075 14.7L83.8875 22.44C82.2875 21.52 80.6875 20.9 79.0875 20.58C77.4875 20.22 75.9675 20.04 74.5275 20.04C72.6075 20.04 71.2475 20.26 70.4475 20.7C69.6875 21.14 69.3075 21.68 69.3075 22.32C69.3075 22.96 69.6475 23.46 70.3275 23.82C71.0075 24.14 71.9075 24.4 73.0275 24.6C74.1875 24.76 75.4475 24.94 76.8075 25.14C78.1675 25.3 79.5275 25.56 80.8875 25.92C82.2875 26.28 83.5475 26.82 84.6675 27.54C85.8275 28.22 86.7475 29.16 87.4275 30.36C88.1075 31.52 88.4475 33.02 88.4475 34.86C88.4475 36.86 87.8275 38.66 86.5875 40.26C85.3875 41.86 83.5875 43.14 81.1875 44.1C78.8275 45.06 75.8875 45.54 72.3675 45.54ZM105.48 45.54C101.32 45.54 98.08 44.52 95.76 42.48C93.44 40.4 92.28 37.28 92.28 33.12V5.22H103.68V33C103.68 34.16 104 35.08 104.64 35.76C105.28 36.4 106.1 36.72 107.1 36.72C108.46 36.72 109.62 36.38 110.58 35.7L113.4 43.68C112.44 44.32 111.26 44.78 109.86 45.06C108.46 45.38 107 45.54 105.48 45.54ZM87.54 22.2V13.68H111.12V22.2H87.54ZM130.778 45.54C127.218 45.54 124.058 44.82 121.298 43.38C118.538 41.94 116.358 39.96 114.758 37.44C113.198 34.88 112.418 31.96 112.418 28.68C112.418 25.4 113.198 22.5 114.758 19.98C116.358 17.46 118.538 15.5 121.298 14.1C124.058 12.66 127.218 11.94 130.778 11.94C134.338 11.94 137.498 12.66 140.258 14.1C143.058 15.5 145.238 17.46 146.798 19.98C148.358 22.5 149.138 25.4 149.138 28.68C149.138 31.96 148.358 34.88 146.798 37.44C145.238 39.96 143.058 41.94 140.258 43.38C137.498 44.82 134.338 45.54 130.778 45.54ZM130.778 36.48C132.098 36.48 133.258 36.18 134.258 35.58C135.298 34.98 136.118 34.1 136.718 32.94C137.318 31.74 137.618 30.32 137.618 28.68C137.618 27.04 137.318 25.66 136.718 24.54C136.118 23.38 135.298 22.5 134.258 21.9C133.258 21.3 132.098 21 130.778 21C129.498 21 128.338 21.3 127.298 21.9C126.298 22.5 125.478 23.38 124.838 24.54C124.238 25.66 123.938 27.04 123.938 28.68C123.938 30.32 124.238 31.74 124.838 32.94C125.478 34.1 126.298 34.98 127.298 35.58C128.338 36.18 129.498 36.48 130.778 36.48ZM152.019 45V0.479997H163.419V45H152.019ZM184.748 45.54C181.188 45.54 178.028 44.82 175.268 43.38C172.508 41.94 170.328 39.96 168.728 37.44C167.168 34.88 166.388 31.96 166.388 28.68C166.388 25.4 167.168 22.5 168.728 19.98C170.328 17.46 172.508 15.5 175.268 14.1C178.028 12.66 181.188 11.94 184.748 11.94C188.308 11.94 191.468 12.66 194.228 14.1C197.028 15.5 199.208 17.46 200.768 19.98C202.328 22.5 203.108 25.4 203.108 28.68C203.108 31.96 202.328 34.88 200.768 37.44C199.208 39.96 197.028 41.94 194.228 43.38C191.468 44.82 188.308 45.54 184.748 45.54ZM184.748 36.48C186.068 36.48 187.228 36.18 188.228 35.58C189.268 34.98 190.088 34.1 190.688 32.94C191.288 31.74 191.588 30.32 191.588 28.68C191.588 27.04 191.288 25.66 190.688 24.54C190.088 23.38 189.268 22.5 188.228 21.9C187.228 21.3 186.068 21 184.748 21C183.468 21 182.308 21.3 181.268 21.9C180.268 22.5 179.448 23.38 178.808 24.54C178.208 25.66 177.908 27.04 177.908 28.68C177.908 30.32 178.208 31.74 178.808 32.94C179.448 34.1 180.268 34.98 181.268 35.58C182.308 36.18 183.468 36.48 184.748 36.48ZM221.889 57.18C218.769 57.18 215.789 56.82 212.949 56.1C210.149 55.38 207.749 54.32 205.749 52.92L209.889 44.94C211.249 46.02 212.929 46.86 214.929 47.46C216.969 48.1 218.949 48.42 220.869 48.42C223.949 48.42 226.169 47.74 227.529 46.38C228.889 45.06 229.569 43.12 229.569 40.56V36.72L230.169 27.6L230.109 18.42V12.48H240.969V39.06C240.969 45.22 239.309 49.78 235.989 52.74C232.669 55.7 227.969 57.18 221.889 57.18ZM219.909 43.32C217.029 43.32 214.369 42.68 211.929 41.4C209.529 40.08 207.589 38.26 206.109 35.94C204.669 33.58 203.949 30.8 203.949 27.6C203.949 24.4 204.669 21.64 206.109 19.32C207.589 16.96 209.529 15.14 211.929 13.86C214.369 12.58 217.029 11.94 219.909 11.94C222.669 11.94 225.029 12.5 226.989 13.62C228.949 14.7 230.429 16.4 231.429 18.72C232.469 21.04 232.989 24 232.989 27.6C232.989 31.2 232.469 34.16 231.429 36.48C230.429 38.8 228.949 40.52 226.989 41.64C225.029 42.76 222.669 43.32 219.909 43.32ZM222.609 34.26C223.969 34.26 225.169 33.98 226.209 33.42C227.289 32.86 228.129 32.08 228.729 31.08C229.369 30.08 229.689 28.92 229.689 27.6C229.689 26.28 229.369 25.12 228.729 24.12C228.129 23.12 227.289 22.36 226.209 21.84C225.169 21.28 223.969 21 222.609 21C221.249 21 220.029 21.28 218.949 21.84C217.869 22.36 217.009 23.12 216.369 24.12C215.769 25.12 215.469 26.28 215.469 27.6C215.469 28.92 215.769 30.08 216.369 31.08C217.009 32.08 217.869 32.86 218.949 33.42C220.029 33.98 221.249 34.26 222.609 34.26ZM251.474 57.18C249.754 57.18 248.014 56.9 246.254 56.34C244.534 55.82 243.134 55.12 242.054 54.24L246.014 46.26C246.694 46.86 247.474 47.32 248.354 47.64C249.274 48 250.174 48.18 251.054 48.18C252.294 48.18 253.274 47.9 253.994 47.34C254.714 46.78 255.334 45.9 255.854 44.7L257.354 40.92L258.254 39.78L269.294 12.48H280.154L266.114 46.32C264.994 49.12 263.694 51.3 262.214 52.86C260.774 54.46 259.154 55.58 257.354 56.22C255.594 56.86 253.634 57.18 251.474 57.18ZM255.914 46.38L241.574 12.48H253.274L263.834 38.76L255.914 46.38Z" fill="#333333"/>
<path d="M289.731 45.81C286.851 45.81 284.421 44.85 282.441 42.93C280.461 41.01 279.471 38.58 279.471 35.64C279.471 32.58 280.461 30.15 282.441 28.35C284.421 26.49 286.851 25.56 289.731 25.56C292.611 25.56 295.041 26.49 297.021 28.35C299.001 30.15 299.991 32.58 299.991 35.64C299.991 38.58 299.001 41.01 297.021 42.93C295.041 44.85 292.611 45.81 289.731 45.81Z" fill="#FF7A45"/>
</svg>
