<svg width="96" height="58" viewBox="0 0 96 58" fill="none" xmlns="http://www.w3.org/2000/svg">
<path d="M0.66 45V12.48H11.52V21.96L9.9 19.26C10.86 16.82 12.42 15 14.58 13.8C16.74 12.56 19.36 11.94 22.44 11.94V22.2C21.92 22.12 21.46 22.08 21.06 22.08C20.7 22.04 20.3 22.02 19.86 22.02C17.54 22.02 15.66 22.66 14.22 23.94C12.78 25.18 12.06 27.22 12.06 30.06V45H0.66ZM24.7444 45V0.479997H36.1444V45H24.7444ZM46.733 57.18C45.013 57.18 43.273 56.9 41.513 56.34C39.793 55.82 38.393 55.12 37.313 54.24L41.273 46.26C41.953 46.86 42.733 47.32 43.613 47.64C44.533 48 45.433 48.18 46.313 48.18C47.553 48.18 48.533 47.9 49.253 47.34C49.973 46.78 50.593 45.9 51.113 44.7L52.613 40.92L53.513 39.78L64.553 12.48H75.413L61.373 46.32C60.253 49.12 58.953 51.3 57.473 52.86C56.033 54.46 54.413 55.58 52.613 56.22C50.853 56.86 48.893 57.18 46.733 57.18ZM51.173 46.38L36.833 12.48H48.533L59.093 38.76L51.173 46.38Z" fill="#333333"/>
<path d="M84.99 45.81C82.11 45.81 79.68 44.85 77.7 42.93C75.72 41.01 74.73 38.58 74.73 35.64C74.73 32.58 75.72 30.15 77.7 28.35C79.68 26.49 82.11 25.56 84.99 25.56C87.87 25.56 90.3 26.49 92.28 28.35C94.26 30.15 95.25 32.58 95.25 35.64C95.25 38.58 94.26 41.01 92.28 42.93C90.3 44.85 87.87 45.81 84.99 45.81Z" fill="#FF7A45"/>
</svg>
